<?xml version="1.0" encoding="utf-8"?>
<!-- Generator: Adobe Illustrator 19.0.0, SVG Export Plug-In . SVG Version: 6.00 Build 0)  -->
<svg version="1.1" id="Calque_8" xmlns="http://www.w3.org/2000/svg" xmlns:xlink="http://www.w3.org/1999/xlink" x="0px" y="0px"
	 viewBox="0 0 283.5 283.5" style="enable-background:new 0 0 283.5 283.5;" xml:space="preserve">
<style type="text/css">
	.st0{fill:none;}
	.st1{fill:#070E28;}
	.st2{fill:#FFFFFF;}
	.st3{fill:#57007F;}
	.st4{fill:none;stroke:#FF0000;stroke-linecap:round;stroke-miterlimit:10;}
	.st5{clip-path:url(#XMLID_87_);}
	.st6{fill:#FFFFFF;stroke:url(#Nouvelle_nuance_de_motif_2);stroke-miterlimit:10;}
	.st7{fill:url(#Nouvelle_nuance_de_motif_2);}
	.st8{fill:#FF0000;}
</style>
<pattern  y="-14.2" width="30" height="27" patternUnits="userSpaceOnUse" id="Nouvelle_nuance_de_motif_2" viewBox="0 -27 30 27" style="overflow:visible;">
	<g id="XMLID_118_">
		<polygon id="XMLID_131_" class="st0" points="0,-27 30,-27 30,0 0,0 		"/>
		<polygon id="XMLID_119_" class="st1" points="30,0 0,0 0,-27 30,-27 		"/>
	</g>
</pattern>
<g id="XMLID_122_">
	<polygon id="XMLID_3_" class="st2" points="19,70.9 141.7,0 264.5,70.9 264.5,212.6 141.7,283.5 19,212.6 	"/>
	<polygon id="XMLID_4_" class="st3" points="25.1,74.4 141.7,7.1 258.3,74.4 258.3,209.1 141.7,276.4 25.1,209.1 	"/>
</g>
<g id="XMLID_93_">
	<circle id="XMLID_6_" class="st1" cx="180.3" cy="101" r="20.3"/>
	<circle id="XMLID_17_" class="st1" cx="180.3" cy="130.8" r="20.3"/>
	<circle id="XMLID_18_" class="st1" cx="180.3" cy="160.6" r="20.3"/>
	<circle id="XMLID_89_" class="st1" cx="180.3" cy="190.3" r="20.3"/>
</g>
<g id="XMLID_1_">
	<circle id="XMLID_90_" class="st1" cx="227.8" cy="116.6" r="20.3"/>
	<circle id="XMLID_91_" class="st1" cx="227.8" cy="146.4" r="20.3"/>
	<circle id="XMLID_92_" class="st1" cx="227.8" cy="176.2" r="20.3"/>
</g>
<line id="XMLID_70_" class="st4" x1="92.5" y1="117.6" x2="211.3" y2="117.6"/>
<line id="XMLID_83_" class="st4" x1="45.3" y1="147.4" x2="211.3" y2="147.4"/>
<line id="XMLID_58_" class="st4" x1="120.3" y1="177.2" x2="211.3" y2="177.2"/>
<line id="XMLID_86_" class="st4" x1="122.1" y1="102" x2="163.3" y2="102"/>
<line id="XMLID_82_" class="st4" x1="111.9" y1="131.8" x2="163.3" y2="131.8"/>
<line id="XMLID_59_" class="st4" x1="110.3" y1="161.6" x2="163.3" y2="161.6"/>
<line id="XMLID_88_" class="st4" x1="120.5" y1="191.3" x2="163.3" y2="191.3"/>
<g id="XMLID_7_">
	<defs>
		<polygon id="XMLID_57_" points="25.1,74.4 141.7,7.1 258.3,74.4 258.3,209.1 141.7,276.4 25.1,209.1 		"/>
	</defs>
	<clipPath id="XMLID_87_">
		<use xlink:href="#XMLID_57_"  style="overflow:visible;"/>
	</clipPath>
	<g id="XMLID_8_" class="st5">
		<path id="XMLID_50_" class="st6" d="M103.1,132.8H47.2c-3,0-5.4-2.4-5.4-5.4v0c0-3,2.4-5.4,5.4-5.4h55.9c3,0,5.4,2.4,5.4,5.4v0
			C108.5,130.3,106.1,132.8,103.1,132.8z"/>
		<path id="XMLID_51_" class="st6" d="M114.8,104.4H92.2c-3,0-5.4-2.4-5.4-5.4v0c0-3,2.4-5.4,5.4-5.4h22.6c3,0,5.4,2.4,5.4,5.4v0
			C120.2,102,117.7,104.4,114.8,104.4z"/>
		<path id="XMLID_52_" class="st6" d="M136.8,76.1h-30.6c-3,0-5.4-2.4-5.4-5.4v0c0-3,2.4-5.4,5.4-5.4h30.6c3,0,5.4,2.4,5.4,5.4v0
			C142.2,73.7,139.7,76.1,136.8,76.1z"/>
		<path id="XMLID_53_" class="st6" d="M169.4,47.7h-62.5c-3,0-5.4-2.4-5.4-5.4v0c0-3,2.4-5.4,5.4-5.4h62.5c3,0,5.4,2.4,5.4,5.4v0
			C174.7,45.3,172.3,47.7,169.4,47.7z"/>
		<path id="XMLID_132_" class="st7" d="M164,41.1c-0.2-0.1-0.3-0.1-0.5,0L48.2,106.7c-0.2,0.1-0.3,0.3-0.3,0.4v31.6
			c0,0.2,0.1,0.3,0.2,0.4c0.1,0,0.2,0.1,0.3,0.1c0.1,0,0.2,0,0.2-0.1L164,73.6c0.2-0.1,0.3-0.3,0.3-0.4V41.6
			C164.3,41.4,164.2,41.2,164,41.1z M163.8,73.1L48.4,138.7v-31.6l115.3-65.6V73.1z"/>
		<path id="XMLID_136_" class="st8" d="M48.4,138.7l115.3-65.6V41.6L48.4,107.2V138.7z M48.9,107.4l114.3-65v30.4l-114.3,65V107.4z"
			/>
		<path id="XMLID_135_" class="st7" d="M48.4,138.7l115.3-65.6V41.6L48.4,107.2V138.7z M48.9,107.4l114.3-65v30.4l-114.3,65V107.4z"
			/>
		<g id="XMLID_23_">
			<path id="XMLID_29_" class="st7" d="M164.2,72.1c3.1-2.5,13.9-12,14.9-23.4c0.1-0.8,0.1-1.6,0.1-2.4c0,0,0,0,0,0v-9.3V21.6
				c-0.7,2.4-1.8,4.7-3,6.8c-0.2,0.2-0.3,0.4-0.4,0.6c0,0,0,0.1,0,0.1c-0.1,0.1-0.1,0.2-0.2,0.3c0,0.1-0.1,0.2-0.1,0.2
				c-4.3,6.6-10.1,11.2-11.3,12.1V72.1z"/>
			<path id="XMLID_28_" class="st7" d="M179.1,17.1c1.6-19.2-11.6-29.6-14.9-31.9v30.4c1.3,0.8,7.1,4.8,11.3,12.1
				C177.4,24.5,178.8,20.9,179.1,17.1z"/>
			<path id="XMLID_24_" class="st7" d="M163.4,41.1l-0.2,0.1V74l0.8-0.5c0.6-0.4,14.9-11.1,16.1-24.8c0.1-0.8,0.1-1.5,0.1-2.2h0V13
				h0c-0.4-19.7-16.1-29.1-16.3-29.2l-0.8-0.4v32.7l0.2,0.1c0.1,0.1,6.8,4.1,11.5,12.4C170.3,36,163.5,41.1,163.4,41.1z M164.2,15.5
				v-30.4c3.3,2.3,16.6,12.7,14.9,31.9c-0.3,3.8-1.7,7.4-3.6,10.6C171.3,20.3,165.5,16.3,164.2,15.5z M176.2,28.5
				c1.3-2.1,2.3-4.4,3-6.8v15.3v9.3c0,0,0,0,0,0c0,0.8,0,1.6-0.1,2.4c-1,11.5-11.9,21-14.9,23.4V41.8c1.2-0.9,7-5.5,11.3-12.1
				 M164.2,15.5v-30.4c3.3,2.3,16.6,12.7,14.9,31.9c-0.3,3.8-1.7,7.4-3.6,10.6C171.3,20.3,165.5,16.3,164.2,15.5z"/>
		</g>
		<path id="XMLID_33_" class="st7" d="M181.3,259.4c-0.4-19.7-16.1-29.1-16.3-29.2l-0.8-0.4v0L48.7,164.1l0,0
			c-0.1-0.1-6.8-4.1-11.5-12.4c4.6-7.4,11.4-12.4,11.5-12.5l0.2-0.1v-32.7l-0.8,0.5c-0.6,0.4-14.9,11.1-16.1,24.8
			c-0.1,0.8-0.1,1.5-0.1,2.2h0v33.5h0c0.4,18.3,14.1,27.8,16,29.1v0l0.2,0.1c0,0,0,0,0,0l0.8,0.4v0l115.3,65.6v0l0.2,0.1
			c0.1,0.1,6.8,4.1,11.5,12.4c-4.6,7.4-11.4,12.4-11.5,12.5l-0.2,0.1v32.8l0.8-0.6c0.6-0.4,14.9-11.1,16.1-24.8
			c0.1-0.8,0.1-1.5,0.1-2.2h0L181.3,259.4L181.3,259.4z M33,163.2c0.3-3.8,1.7-7.4,3.6-10.6c0,0,0,0,0,0
			C34.7,155.8,33.3,159.4,33,163.2c-1.6,19.2,11.6,29.6,14.9,31.9v0C44.6,192.8,31.4,182.4,33,163.2z M180.1,263.5
			c-0.3,3.8-1.7,7.4-3.6,10.6l0,0C178.4,270.9,179.8,267.3,180.1,263.5c1.6-19.2-11.6-29.6-14.9-31.9v0
			C168.5,233.9,181.8,244.3,180.1,263.5z"/>
		<path id="XMLID_44_" class="st8" d="M176.5,276.1c-4.3,6.6-10.1,11.2-11.3,12.1v30.3c3.1-2.5,13.9-12,14.9-23.4
			c0.1-0.8,0.1-1.6,0.1-2.4c0,0,0,0,0,0v-9.3v-15.3c-0.7,2.4-1.8,4.7-3,6.8L176.5,276.1z"/>
		<path id="XMLID_16_" class="st8" d="M176.2,28.5l-0.8,1.2c-4.3,6.6-10.1,11.2-11.3,12.1l-1,0.6l-114.3,65l-1,0.7
			c-3.1,2.5-13.9,12-14.9,23.4c-0.1,0.8-0.1,1.6-0.1,2.4c0,0,0,0,0,0v9.3v15.3c0.7-2.4,1.8-4.7,3-6.8l0.8-1.2
			c4.3-6.6,10.1-11.2,11.3-12.1l1-0.6l114.3-65l0,0h0l0,0v0l1-0.7c3.1-2.5,13.9-12,14.9-23.4c0.1-0.8,0.1-1.6,0.1-2.4c0,0,0,0,0,0
			v-9.3V21.6C178.6,24.1,177.5,26.4,176.2,28.5z"/>
		<path id="XMLID_47_" class="st6" d="M112.6,189.5H53c-3,0-5.4-2.4-5.4-5.4v0c0-3,2.4-5.4,5.4-5.4h59.7c3,0,5.4,2.4,5.4,5.4v0
			C118,187,115.6,189.5,112.6,189.5z"/>
		<path id="XMLID_48_" class="st6" d="M133.7,217.8h-32.8c-3,0-5.4-2.4-5.4-5.4l0,0c0-3,2.4-5.4,5.4-5.4h32.8c3,0,5.4,2.4,5.4,5.4
			l0,0C139.1,215.4,136.7,217.8,133.7,217.8z"/>
		<path id="XMLID_49_" class="st6" d="M152.3,246.2h-46.4c-3,0-5.4-2.4-5.4-5.4v0c0-3,2.4-5.4,5.4-5.4h46.4c3,0,5.4,2.4,5.4,5.4v0
			C157.7,243.7,155.2,246.2,152.3,246.2z"/>
		<path id="XMLID_54_" class="st6" d="M172.3,274.5h-66.4c-3,0-5.4-2.4-5.4-5.4v0c0-3,2.4-5.4,5.4-5.4h66.4c3,0,5.4,2.4,5.4,5.4v0
			C177.7,272.1,175.2,274.5,172.3,274.5z"/>
		<path id="XMLID_55_" class="st6" d="M169.4,19.4H95.5c-3,0-5.4-2.4-5.4-5.4v0c0-3,2.4-5.4,5.4-5.4h73.8c3,0,5.4,2.4,5.4,5.4v0
			C174.7,17,172.3,19.4,169.4,19.4z"/>
		<g id="XMLID_64_">
			<path id="XMLID_65_" class="st2" d="M38.5,160.6h63.8c2.7,0,4.9-2.2,4.9-4.9s-2.2-4.9-4.9-4.9H38.5c-0.3,0-0.5,0-0.8,0.1l-3.5,7
				C35,159.5,36.6,160.6,38.5,160.6z"/>
			<path id="XMLID_79_" class="st7" d="M102.2,149.9H38.5c-0.1,0-0.2,0-0.3,0l-0.3,0.5c0.2,0,0.4-0.1,0.5-0.1h63.8
				c3,0,5.4,2.4,5.4,5.4c0,3-2.4,5.4-5.4,5.4H38.5c-2,0-3.7-1.1-4.6-2.6l-0.3,0.5c1.1,1.6,2.8,2.6,4.9,2.6h63.8
				c3.2,0,5.9-2.6,5.9-5.9S105.5,149.9,102.2,149.9z"/>
			<path id="XMLID_84_" class="st7" d="M38.5,150.9h63.8c2.7,0,4.9,2.2,4.9,4.9s-2.2,4.9-4.9,4.9H38.5c-1.9,0-3.5-1.1-4.3-2.7
				l-0.3,0.5c0.9,1.6,2.6,2.6,4.6,2.6h63.8c3,0,5.4-2.4,5.4-5.4c0-3-2.4-5.4-5.4-5.4H38.5c-0.2,0-0.4,0-0.5,0.1l-0.3,0.5
				C37.9,150.9,38.2,150.9,38.5,150.9z"/>
		</g>
		<path id="XMLID_56_" class="st2" d="M37.7,150.9c0,0-0.7,0.3-3.5,7"/>
	</g>
</g>
<g id="XMLID_20_">
	<path id="XMLID_22_" class="st2" d="M186.6,87.3h4.7l-3.7,26.5H183l0.3-2.1c-1,0.9-2,1.6-2.9,2s-1.9,0.6-3,0.6
		c-2.5,0-4.5-0.9-6-2.8s-2.2-4-2.2-6.5c0-1.9,0.5-3.7,1.4-5.4c1-1.7,2.2-3,3.9-4c1.6-1,3.3-1.4,5.1-1.4c1.2,0,2.3,0.3,3.3,0.8
		c1,0.5,1.8,1.3,2.5,2.4L186.6,87.3z M178.5,110.1c1.2,0,2.2-0.3,3-0.8c0.9-0.5,1.6-1.3,2.2-2.4c0.6-1.1,0.9-2.2,0.9-3.4
		c0-1.5-0.4-2.7-1.3-3.7c-0.9-0.9-2-1.4-3.5-1.4c-1.7,0-3.1,0.6-4.3,1.8c-1.2,1.2-1.7,2.8-1.7,4.8c0,1.5,0.4,2.7,1.3,3.6
		S177.1,110.1,178.5,110.1z"/>
	<path id="XMLID_36_" class="st2" d="M183.6,138.2l4.1,2.1c-0.9,1.2-2.2,2.2-3.7,2.9s-3.2,1.1-5.1,1.1c-2.9,0-5.2-0.8-6.9-2.5
		s-2.5-3.8-2.5-6.5c0-3.1,1.1-5.7,3.2-7.9c2.1-2.2,4.6-3.2,7.6-3.2c1.8,0,3.4,0.4,4.8,1.2s2.5,1.9,3.3,3.4c0.8,1.5,1.2,3.1,1.2,4.9
		c0,0.6-0.1,1.2-0.2,1.9h-15.3c0,1.3,0.5,2.4,1.3,3.2c0.8,0.8,2,1.2,3.4,1.2C180.7,140,182.3,139.4,183.6,138.2z M184.8,132.2
		c-0.4-1.2-0.9-2.1-1.8-2.7s-1.8-0.9-3-0.9c-1.1,0-2.2,0.3-3.1,0.9s-1.6,1.5-2.1,2.6H184.8z"/>
	<path id="XMLID_39_" class="st2" d="M185.6,154.7h4.7l-2.7,19.1H183l0.3-2.1c-1,0.9-2,1.6-2.9,2c-0.9,0.4-1.9,0.6-3,0.6
		c-2.5,0-4.5-0.9-6-2.8s-2.2-4-2.2-6.5c0-1.9,0.5-3.7,1.4-5.4c1-1.7,2.2-3,3.9-4c1.6-1,3.3-1.4,5.1-1.4c1.2,0,2.3,0.3,3.3,0.8
		c1,0.5,1.8,1.3,2.5,2.4L185.6,154.7z M178.5,170.1c1.2,0,2.2-0.3,3-0.8c0.9-0.5,1.6-1.3,2.2-2.4s0.9-2.2,0.9-3.4
		c0-1.5-0.4-2.7-1.3-3.7c-0.9-0.9-2-1.4-3.5-1.4c-1.7,0-3.1,0.6-4.3,1.8s-1.8,2.8-1.8,4.8c0,1.5,0.4,2.7,1.3,3.6
		C176,169.7,177.1,170.1,178.5,170.1z"/>
	<path id="XMLID_43_" class="st2" d="M176.6,184.7h4.2l-0.3,2.6c1.3-2.1,2.8-3.1,4.5-3.1c0.4,0,0.9,0.1,1.3,0.3l-1.7,4.3
		c-0.4-0.1-0.6-0.2-0.8-0.2c-0.9,0-1.7,0.5-2.5,1.6s-1.3,3.2-1.7,6.4l-0.9,7.2H174L176.6,184.7z"/>
</g>
<g id="XMLID_2_">
	<path id="XMLID_9_" class="st2" d="M233.2,108.4L231,112c-0.6-0.9-1.2-1.5-1.8-1.9s-1.2-0.6-1.8-0.6c-0.4,0-0.8,0.1-1.1,0.4
		s-0.4,0.5-0.4,0.8c0,0.3,0.1,0.6,0.4,0.8c0.2,0.3,0.9,0.8,2,1.6c1.8,1.3,3,2.4,3.6,3.3c0.6,0.9,0.9,1.9,0.9,3c0,1.4-0.6,2.8-1.7,4
		s-2.9,1.9-5.1,1.9c-1.3,0-2.4-0.3-3.5-0.8s-2.2-1.5-3.5-2.8l2.9-3.4c1.3,1.7,2.7,2.6,4.3,2.6c0.6,0,1.1-0.1,1.5-0.4
		s0.6-0.7,0.6-1.1c0-0.3-0.1-0.7-0.4-1s-1-1-2.3-1.9c-1.5-1-2.5-1.9-3-2.7c-0.8-1-1.2-2.1-1.2-3.3c0-1.6,0.6-2.9,1.8-3.9
		s2.6-1.5,4.3-1.5c1.2,0,2.3,0.3,3.3,0.8S232.5,107.4,233.2,108.4z"/>
	<path id="XMLID_11_" class="st2" d="M230.9,149.2l4.1,2.1c-0.9,1.2-2.2,2.2-3.7,2.9s-3.2,1.1-5.1,1.1c-2.9,0-5.2-0.8-6.9-2.5
		s-2.5-3.8-2.5-6.5c0-3.1,1.1-5.7,3.2-7.9s4.6-3.2,7.6-3.2c1.8,0,3.4,0.4,4.8,1.2s2.5,1.9,3.3,3.4s1.2,3.1,1.2,4.9
		c0,0.6-0.1,1.2-0.2,1.9h-15.3c0,1.3,0.5,2.4,1.3,3.2s2,1.2,3.4,1.2C227.9,151,229.5,150.4,230.9,149.2z M232.1,143.2
		c-0.4-1.2-0.9-2.1-1.8-2.7s-1.8-0.9-3-0.9c-1.1,0-2.2,0.3-3.1,0.9s-1.6,1.5-2.1,2.6H232.1z"/>
	<path id="XMLID_14_" class="st2" d="M231.9,165.7h4.7l-3.6,26.1h-4.6l1.3-9.2c-1,1-1.8,1.7-2.7,2.1c-0.8,0.4-1.8,0.6-2.8,0.6
		c-2.4,0-4.3-0.9-5.7-2.8c-1.4-1.9-2.1-4-2.1-6.5c0-1.9,0.5-3.7,1.4-5.4c0.9-1.7,2.1-3,3.6-4c1.5-1,3.1-1.4,4.8-1.4
		c1.1,0,2.1,0.3,3.1,0.8c0.9,0.5,1.7,1.3,2.3,2.3L231.9,165.7z M225.4,181.1c1.1,0,2-0.3,2.8-0.8s1.5-1.3,2-2.5
		c0.5-1.1,0.8-2.3,0.8-3.4c0-1.5-0.4-2.7-1.2-3.6c-0.8-0.9-1.9-1.4-3.2-1.4c-1.5,0-2.8,0.6-3.9,1.8s-1.6,2.8-1.6,4.8
		c0,1.5,0.4,2.7,1.2,3.6S224.1,181.1,225.4,181.1z"/>
</g>
</svg>
